<svg width="800" height="600" xmlns="http://www.w3.org/2000/svg">

  <g>
    <title>Layer 1</title>
    <g stroke="null">
      <path stroke="null" fill="#067579"
        d="m381.27698,169.31966c148.96509,0 269.72521,88.6739 269.72521,198.05873s-120.76012,198.05873 -269.72521,198.05873s-355.12704,-108.45132 -269.72517,-198.05873s120.76008,-198.05873 269.72517,-198.05873z" />
      <path stroke="null" fill="#12c1d8"
        d="m742.28447,178.74162c-2.41882,0 -4.38578,1.44433 -4.38578,3.22047l0,103.05495c0,1.77614 1.96695,3.22047 4.38578,3.22047s4.38578,-1.44433 4.38578,-3.22047l0,-103.05495c0,-1.77614 -1.96695,-3.22047 -4.38578,-3.22047z" />
      <path stroke="null" fill="#12c1d8"
        d="m5.47425,101.45039c-2.41882,0 -4.38578,1.44433 -4.38578,3.22047l0,25.76372c0,1.77614 1.96695,3.22047 4.38578,3.22047s4.38578,-1.44433 4.38578,-3.22047l0,-25.76374c0,-1.77614 -1.96695,-3.22047 -4.38578,-3.22045z" />
      <path stroke="null" fill="#12c1d8"
        d="m5.47425,178.74162c-2.41882,0 -4.38578,1.44433 -4.38578,3.22047l0,49.91724c0,1.77614 1.96695,3.22047 4.38578,3.22047s4.38578,-1.44433 4.38578,-3.22047l0,-49.91724c0,-1.77614 -1.96695,-3.22047 -4.38578,-3.22047z" />
      <path stroke="null" fill="#12c1d8"
        d="m5.47425,249.59189c-2.41882,0 -4.38578,1.44433 -4.38578,3.22047l0,49.91724c0,1.77614 1.96695,3.22047 4.38578,3.22047s4.38578,-1.44433 4.38578,-3.22047l0,-49.91724c0,-1.77614 -1.96695,-3.22047 -4.38578,-3.22047z" />
      <path stroke="null" fill="#12c1d8"
        d="m398.82008,0.00569c-2.41882,0 -4.38578,1.44433 -4.38578,3.22047l0,49.91724c0,1.77614 1.96695,3.22047 4.38578,3.22047s4.38578,-1.44433 4.38578,-3.22047l0,-49.91724c0,-1.77614 -1.96695,-3.22047 -4.38578,-3.22047z" />
      <path stroke="null" fill="#8eb9da"
        d="m263.34507,354.02791l-151.79325,0l0,-3.22047l151.79321,0c13.18623,0 23.91403,-7.8782 23.91403,-17.56161l0,-75.36333l4.38578,0l0,75.36333c0,11.45876 -12.69476,20.78208 -28.29981,20.78208l0.00004,0z" />
      <rect stroke="null" fill="#8eb9da" height="3.22047" width="345.23955" y="517.39428" x="207.74013" />
      <g stroke="null">
        <path stroke="null" fill="#e6e6e6"
          d="m772.02263,332.49369l-184.40386,0c-9.95152,0 -18.04742,-5.94481 -18.04742,-13.25219l0,-133.75553c0,-7.30738 8.0959,-13.25219 18.04742,-13.25219l184.40386,0c9.95152,0 18.04742,5.94481 18.04742,13.25219l0,133.75553c0,7.30738 -8.0959,13.25219 -18.04742,13.25219z" />
        <path stroke="null" fill="#fff"
          d="m621.96053,176.18218c-25.96405,0 -47.01204,15.4555 -47.01204,34.52086l0,105.70055c0,6.70558 7.40295,12.14152 16.53485,12.14152l112.75804,0c44.43194,0 80.45117,-26.44886 80.45117,-59.07517l0,-81.14626c0,-6.70558 -7.40295,-12.14152 -16.53485,-12.14152l-146.19716,0l0,0.00003l0,-0.00002z" />
        <g stroke="null">
          <path stroke="null" fill="#e6e6e6"
            d="m729.20925,215.05229l-99.16371,0c-1.89187,0 -3.43121,-1.13038 -3.43121,-2.51955s1.53941,-2.51903 3.43121,-2.51903l99.16371,0c1.89187,0 3.43053,1.12984 3.43053,2.51903s-1.53866,2.51955 -3.43053,2.51955z" />
          <path stroke="null" fill="#e6e6e6"
            d="m729.20925,268.77548l-99.16371,0c-1.89187,0 -3.43121,-1.13038 -3.43121,-2.51955s1.53941,-2.51903 3.43121,-2.51903l99.16371,0c1.89187,0 3.43053,1.12984 3.43053,2.51903s-1.53866,2.51955 -3.43053,2.51955z" />
          <path stroke="null" fill="#e6e6e6"
            d="m769.47759,241.93148l-179.70034,0c-1.89187,0 -3.43121,-1.13038 -3.43121,-2.51955s1.53941,-2.51903 3.43121,-2.51903l179.70034,0c1.89187,0 3.43053,1.12984 3.43053,2.51903s-1.53866,2.51955 -3.43053,2.51955z" />
        </g>
        <path stroke="null" fill="#e6e6e6"
          d="m771.31245,290.61931l-64.91739,0c-1.89187,0 -3.43121,-1.13038 -3.43121,-2.51955s1.53941,-2.51903 3.43121,-2.51903l64.91739,0c1.89187,0 3.43053,1.12984 3.43053,2.51903s-1.53866,2.51955 -3.43053,2.51955z" />
      </g>
      <g stroke="null">
        <path stroke="null" fill="#e6e6e6"
          d="m384.68914,598.99435l-146.42906,0c-7.90218,0 -14.33087,-4.72058 -14.33087,-10.52313l0,-106.21089c0,-5.80256 6.42869,-10.52313 14.33087,-10.52313l146.42912,0c7.90218,0 14.33087,4.72058 14.33087,10.52313l0,106.21089c0,5.80256 -6.42869,10.52313 -14.33087,10.52313l-0.00004,0l-0.00002,0z" />
        <path stroke="null" fill="#fff"
          d="m265.52975,474.87246c-20.61718,0 -37.33073,12.27272 -37.33073,27.41191l0,83.93338c0,5.3247 5.87841,9.64121 13.1298,9.64121l89.53748,0c35.28198,0 63.88368,-21.00218 63.88368,-46.90965l0,-64.43559c0,-5.3247 -5.87839,-9.64121 -13.12983,-9.64121l-116.09044,0l0.00004,-0.00005l-0.00002,0z" />
        <g stroke="null">
          <path stroke="null" fill="#e6e6e6"
            d="m350.69245,505.7379l-78.74264,0c-1.50226,0 -2.72464,-0.89759 -2.72464,-2.0007s1.22236,-2.00026 2.72464,-2.00026l78.74264,0c1.50226,0 2.72407,0.89716 2.72407,2.00026s-1.22181,2.0007 -2.72407,2.0007z" />
          <path stroke="null" fill="#e6e6e6"
            d="m350.69245,548.39779l-78.74264,0c-1.50226,0 -2.72464,-0.89759 -2.72464,-2.0007s1.22236,-2.00026 2.72464,-2.00026l78.74264,0c1.50226,0 2.72407,0.89716 2.72407,2.00026s-1.22181,2.0007 -2.72407,2.0007z" />
          <path stroke="null" fill="#e6e6e6"
            d="m382.66821,527.08185l-142.69415,0c-1.50226,0 -2.72464,-0.89759 -2.72464,-2.0007s1.22236,-2.00026 2.72464,-2.00026l142.69415,0c1.50226,0 2.72407,0.89716 2.72407,2.00026s-1.22181,2.0007 -2.72407,2.0007z" />
        </g>
        <path stroke="null" fill="#e6e6e6"
          d="m384.12519,565.74324l-51.54876,0c-1.50226,0 -2.72464,-0.89759 -2.72464,-2.0007s1.22236,-2.00026 2.72464,-2.00026l51.54876,0c1.50226,0 2.72407,0.89716 2.72407,2.00026s-1.22181,2.0007 -2.72407,2.0007z" />
      </g>
      <g stroke="null">
        <path stroke="null" fill="#e6e6e6"
          d="m282.34436,257.06982l-108.29071,0c-5.84402,0 -10.59831,-3.49107 -10.59831,-7.78231l0,-78.54761c0,-4.29124 4.75429,-7.78231 10.59829,-7.78231l108.29073,0c5.844,0 10.59829,3.49107 10.59829,7.78231l0,78.54761c0,4.29124 -4.75429,7.78231 -10.59829,7.78231l-0.00002,0l0.00002,0z" />
        <path stroke="null" fill="#fff"
          d="m194.22078,165.27625c-15.2473,0 -27.60771,9.07621 -27.60771,20.27231l0,62.07241c0,3.93786 4.34733,7.1301 9.71006,7.1301l66.21689,0c26.09258,0 47.24478,-15.53202 47.24478,-34.69174l0,-47.65293c0,-3.93786 -4.34733,-7.1301 -9.71008,-7.1301l-85.85396,0l0,-0.00003l0.00002,-0.00002z" />
        <g stroke="null">
          <path stroke="null" fill="#e6e6e6"
            d="m257.20233,188.1026l-58.23364,0c-1.11098,0 -2.015,-0.66382 -2.015,-1.47961s0.904,-1.47927 2.015,-1.47927l58.23364,0c1.11098,0 2.01458,0.66348 2.01458,1.47927s-0.9036,1.47961 -2.01458,1.47961z" />
          <path stroke="null" fill="#e6e6e6"
            d="m257.20233,219.65145l-58.23364,0c-1.11098,0 -2.015,-0.66382 -2.015,-1.47961s0.904,-1.47927 2.015,-1.47927l58.23364,0c1.11098,0 2.01458,0.66348 2.01458,1.47927s-0.9036,1.47961 -2.01458,1.47961z" />
          <path stroke="null" fill="#e6e6e6"
            d="m280.84979,203.88738l-105.52857,0c-1.11098,0 -2.015,-0.66382 -2.015,-1.47961s0.904,-1.47927 2.015,-1.47927l105.52857,0c1.11098,0 2.01458,0.66348 2.01458,1.47927s-0.9036,1.47961 -2.01458,1.47961z" />
        </g>
        <path stroke="null" fill="#e6e6e6"
          d="m281.92729,232.47915l-38.12256,0c-1.11098,0 -2.015,-0.66382 -2.015,-1.47961s0.904,-1.47927 2.015,-1.47927l38.12256,0c1.11098,0 2.01458,0.66348 2.01458,1.47927s-0.9036,1.47961 -2.01458,1.47961z" />
      </g>
      <circle stroke="null" fill="#8eb9da" r="10" cy="340.00442" cx="598.37287" />
      <circle stroke="null" fill="#8eb9da" r="10" cy="257.88247" cx="289.1757" />
      <circle stroke="null" fill="#8eb9da" r="10" cy="478.4845" cx="394.43431" />
      <g stroke="null">
        <ellipse stroke="null" fill="#f2f2f2" ry="19.64596" rx="27.33055" cy="28.45924" cx="441.80302" />
        <path stroke="null" fill="#f2f2f2"
          d="m660.90069,21.73824l-147.10977,0c-5.04676,0 -9.15294,-3.01515 -9.15294,-6.72099s4.10618,-6.72099 9.15294,-6.72099l147.10977,0c5.04676,0 9.15294,3.01515 9.15294,6.72099s-4.10618,6.72099 -9.15294,6.72099z" />
        <path stroke="null" fill="#f2f2f2"
          d="m775.70566,44.48618l-261.91474,0c-5.04676,0 -9.15294,-3.01515 -9.15294,-6.72099s4.10618,-6.72099 9.15294,-6.72099l261.91474,0c5.04676,0 9.15294,3.01515 9.15294,6.72099s-4.10618,6.72099 -9.15294,6.72099z" />
      </g>
      <g stroke="null">
        <ellipse stroke="null" fill="#f2f2f2" ry="12.71457" rx="17.68794" cy="117.95945" cx="46.21221" />
        <path stroke="null" fill="#f2f2f2"
          d="m188.00901,113.60973l-95.20728,0c-3.2662,0 -5.92365,-1.95136 -5.92365,-4.34972s2.65745,-4.34972 5.92365,-4.34972l95.20728,0c3.2662,0 5.92365,1.95136 5.92365,4.34972s-2.65745,4.34972 -5.92363,4.34972l-0.00002,0z" />
        <path stroke="null" fill="#f2f2f2"
          d="m262.30908,128.33188l-169.50736,0c-3.2662,0 -5.92365,-1.95136 -5.92365,-4.34972s2.65745,-4.34972 5.92365,-4.34972l169.50736,0c3.26622,0 5.92363,1.95136 5.92363,4.34972s-2.65745,4.34972 -5.92363,4.34972z" />
      </g>
      <g stroke="null">
        <ellipse stroke="null" fill="#f2f2f2" ry="12.71455" rx="17.68792" cy="570.43509" cx="576.89097" />
        <path stroke="null" fill="#f2f2f2"
          d="m718.68777,566.08536l-95.2073,0c-3.26617,0 -5.92363,-1.95136 -5.92363,-4.34971s2.65745,-4.34971 5.92363,-4.34971l95.2073,0c3.26617,0 5.92363,1.95136 5.92363,4.34971s-2.65745,4.34971 -5.92363,4.34971z" />
        <path stroke="null" fill="#f2f2f2"
          d="m792.98789,580.8075l-169.50738,0c-3.26617,0 -5.92363,-1.95136 -5.92363,-4.34971s2.65745,-4.34971 5.92363,-4.34971l169.50738,0c3.26617,0 5.92363,1.95136 5.92363,4.34971s-2.65745,4.34971 -5.92363,4.34971z" />
      </g>
      <rect stroke="null" fill="#e6e6e6" height="152.97219" width="4.38578" y="172.2825" x="359.896" />
      <circle stroke="null" fill="#e6e6e6" r="6" cy="325.25469" cx="362.08889" />
      <circle stroke="null" fill="#e6e6e6" r="6" cy="436.36082" cx="561.64165" />
      <circle stroke="null" fill="#e6e6e6" r="6" cy="304.32166" cx="206.39387" />
      <rect stroke="null" fill="#e6e6e6" transform="matrix(2.19188 -0.048725 0.0663558 1.6095 -496.855 -168.715)"
        height="2.00092" width="32.82787" y="303.49977" x="276.70435" />
      <polygon stroke="null" fill="#e6e6e6"
        points="668.6787719726562,473.3474390096926 559.5697631835938,473.3474390096926 559.5697631835938,436.3608213871703 563.9555053710938,436.3608213871703 563.9555053710938,470.126973616756 668.6787719726562,470.126973616756 668.6787719726562,473.3474390096926 " />
      <circle stroke="null" fill="#e6e6e6" r="6" cy="409.81635" cx="200.99325" />
      <polygon stroke="null" fill="#e6e6e6"
        points="306.7313232421875,446.8029855615641 197.622314453125,446.8029855615641 197.622314453125,409.81633024809344 202.00808715820312,409.81633024809344 202.00808715820312,443.5825201686275 306.7313232421875,443.5825201686275 306.7313232421875,446.8029855615641 " />
      <rect stroke="null" fill="#e6e6e6" height="3.22047" width="524.06159" y="373.0538" x="116.52403" />
    </g>
  </g>
</svg>
